# xmcd
#
# Track frame offsets:
#  150
#  13543
#  27697
#  52441
#  63710
#  77396
#  93332
#  104558
#  119283
#  142184
#  155130
#  171577
#
# Disc length: 2443 seconds
#
# Revision: 0
# Processed by: cddbd v1.4PL0 Copyright (c) Steve Scherf et al.
# Submitted via: AlterCode_WhopSee 2.7
#
DISCID=b409890c
DTITLE=Flashing Red Airplane - My Life as a Frog
DYEAR=1900
DGENRE=
TTITLE0=We're not supposed to mind.
TTITLE1=Every angel eventually gets it's wings.
TTITLE2=It's a long way down when you know your way.
TTITLE3=He lied.
TTITLE4=Etcetera
TTITLE5=My boyish face
TTITLE6=Thoughts from flat ground
TTITLE7=Carla and Yen
TTITLE8=Crossed Eyes
TTITLE9=Treading water
TTITLE10=Lemons
TTITLE11=My life as a frog
EXTD=
EXTT0=
EXTT1=
EXTT2=
EXTT3=
EXTT4=
EXTT5=
EXTT6=
EXTT7=
EXTT8=
EXTT9=
EXTT10=
EXTT11=
PLAYORDER=
